<?xml version="1.0" standalone="no"?>
<!DOCTYPE svg PUBLIC "-//W3C//DTD SVG 20010904//EN"
 "http://www.w3.org/TR/2001/REC-SVG-20010904/DTD/svg10.dtd">
<svg version="1.0" xmlns="http://www.w3.org/2000/svg"
 width="120.000000pt" height="120.000000pt" viewBox="0 0 120.000000 120.000000"
 preserveAspectRatio="xMidYMid meet">
<metadata>
Created by potrace 1.11, written by Peter Selinger 2001-2013
</metadata>
<g transform="translate(0.000000,120.000000) scale(0.100000,-0.100000)"
fill="#000000" stroke="none">
<path d="M170 891 c-21 -6 -25 -14 -28 -50 -3 -43 -3 -44 25 -37 15 4 57 9 94
13 59 5 68 3 94 -20 42 -36 41 -89 -3 -128 -29 -26 -40 -29 -97 -29 l-65 0 0
-39 0 -38 73 -5 c39 -3 86 -12 103 -21 66 -34 62 -126 -8 -164 -27 -15 -53
-18 -135 -16 l-103 2 0 -38 c0 -35 3 -39 31 -45 53 -10 162 -7 216 7 106 28
163 93 163 187 0 47 -4 56 -37 90 -21 20 -45 39 -53 42 -11 3 -7 12 18 37 38
39 46 65 40 132 -6 56 -33 93 -85 115 -34 15 -197 18 -243 5z"/>
<path d="M737 879 c-77 -40 -118 -141 -119 -289 0 -203 63 -305 200 -317 157
-14 249 76 267 263 15 152 -31 293 -110 340 -55 32 -180 34 -238 3z m179 -93
c19 -19 34 -40 34 -48 0 -12 -182 -154 -213 -167 -6 -2 -8 23 -4 67 13 158
102 229 183 148z m52 -248 c-8 -119 -67 -200 -133 -184 -28 7 -87 73 -83 92 3
14 195 162 212 163 5 1 6 -32 4 -71z"/>
</g>
</svg>
